<svg id="Warstwa_1" data-name="Warstwa 1" xmlns="http://www.w3.org/2000/svg" viewBox="0 0 317.87 317.87"><defs><style>.cls-1{fill:#fff;opacity:0.1;}</style></defs><title>db</title><path class="cls-1" d="M202.26,259.13h-1.1c-87.23,0-157.79-21.19-157.81-37.46l-0.16-63.9c0-.1,0-0.19,0-0.27,14.36,6.81,31.24,10,41.33,11.83,31.36,5.83,72.78,9,116.6,9h1.1c44.09,0,85.75-3.35,117.34-9.28,10.1-1.9,26.92-5.06,41.29-11.83v0.09l0.17,63.9C361.09,237.6,290,259,202.26,259.13Zm0-100h-1.1c-87.23,0-157.79-19.33-157.81-35.6l-0.16-54c0-16.33,71.08-29.67,158.83-29.78h1.14c87.2,0,157.71,13.11,157.73,29.38l0.17,54C361.09,139.47,290,159,202.26,159.14Zm-1.11,119.24h1.1a656.61,656.61,0,0,0,117.34-11.14c10.1-1.9,26.92-5.06,41.3-11.84l0.16,72.47c0,16.34-71.05,29.67-158.8,29.78h-1.12c-87.21,0-157.77-13.11-157.79-29.37l-0.15-72.66c14.36,6.82,31.25,10,41.36,11.84A652.69,652.69,0,0,0,201.15,278.38Z" transform="translate(-43.19 -39.78)"/></svg>