<svg xmlns="http://www.w3.org/2000/svg" xmlns:xlink="http://www.w3.org/1999/xlink" viewBox="0 0 1015.26 239.4"><defs><style>.cls-1{isolation:isolate;}.cls-2{fill:#362f2d;}.cls-3{fill:#b8ae9c;}.cls-10,.cls-11,.cls-12,.cls-13,.cls-14,.cls-15,.cls-16,.cls-17,.cls-4,.cls-5,.cls-6,.cls-7,.cls-8,.cls-9{mix-blend-mode:multiply;}.cls-4{fill:url(#Gradient_bez_nazwy_55);}.cls-5{fill:url(#Gradient_bez_nazwy_55-2);}.cls-6{fill:url(#Gradient_bez_nazwy_55-3);}.cls-7{fill:url(#Gradient_bez_nazwy_55-4);}.cls-8{fill:url(#Gradient_bez_nazwy_55-5);}.cls-9{fill:url(#Gradient_bez_nazwy_55-6);}.cls-10{fill:url(#Gradient_bez_nazwy_55-7);}.cls-11{fill:url(#Gradient_bez_nazwy_55-8);}.cls-12{fill:url(#Gradient_bez_nazwy_55-9);}.cls-13{fill:url(#Gradient_bez_nazwy_55-10);}.cls-14{fill:url(#Gradient_bez_nazwy_55-11);}.cls-15{fill:url(#Gradient_bez_nazwy_55-12);}.cls-16{fill:url(#Gradient_bez_nazwy_55-13);}.cls-17{fill:url(#Gradient_bez_nazwy_55-14);}.cls-18{fill:url(#Gradient_bez_nazwy_3);}.cls-19{fill:url(#Gradient_bez_nazwy_3-2);}.cls-20{fill:url(#Gradient_bez_nazwy_3-3);}.cls-21{fill:url(#Gradient_bez_nazwy_3-4);}.cls-22{fill:url(#Gradient_bez_nazwy_3-5);}.cls-23{fill:url(#Gradient_bez_nazwy_3-6);}.cls-24{fill:url(#Gradient_bez_nazwy_3-7);}.cls-25{fill:url(#Gradient_bez_nazwy_3-8);}.cls-26{fill:url(#Gradient_bez_nazwy_3-9);}</style><linearGradient id="Gradient_bez_nazwy_55" x1="281.46" y1="181.82" x2="836.47" y2="181.82" gradientUnits="userSpaceOnUse"><stop offset="0.32" stop-color="#fff" stop-opacity="0"/><stop offset="1" stop-opacity="0.5"/></linearGradient><linearGradient id="Gradient_bez_nazwy_55-2" x1="302.77" y1="125.82" x2="857.79" y2="125.82" xlink:href="#Gradient_bez_nazwy_55"/><linearGradient id="Gradient_bez_nazwy_55-3" x1="281.46" y1="182.76" x2="836.47" y2="182.76" xlink:href="#Gradient_bez_nazwy_55"/><linearGradient id="Gradient_bez_nazwy_55-4" x1="281.46" y1="142.65" x2="836.47" y2="142.65" xlink:href="#Gradient_bez_nazwy_55"/><linearGradient id="Gradient_bez_nazwy_55-5" x1="281.46" y1="99.28" x2="836.47" y2="99.28" xlink:href="#Gradient_bez_nazwy_55"/><linearGradient id="Gradient_bez_nazwy_55-6" x1="281.46" y1="164.23" x2="836.47" y2="164.23" xlink:href="#Gradient_bez_nazwy_55"/><linearGradient id="Gradient_bez_nazwy_55-7" x1="281.46" y1="78.53" x2="836.47" y2="78.53" xlink:href="#Gradient_bez_nazwy_55"/><linearGradient id="Gradient_bez_nazwy_55-8" x1="281.46" y1="61.78" x2="836.47" y2="61.78" xlink:href="#Gradient_bez_nazwy_55"/><linearGradient id="Gradient_bez_nazwy_55-9" x1="281.46" y1="218.48" x2="836.47" y2="218.48" xlink:href="#Gradient_bez_nazwy_55"/><linearGradient id="Gradient_bez_nazwy_55-10" x1="302.77" y1="195.76" x2="857.79" y2="195.76" xlink:href="#Gradient_bez_nazwy_55"/><linearGradient id="Gradient_bez_nazwy_55-11" x1="302.77" y1="166.02" x2="857.79" y2="166.02" xlink:href="#Gradient_bez_nazwy_55"/><linearGradient id="Gradient_bez_nazwy_55-12" x1="302.77" y1="160.67" x2="857.79" y2="160.67" xlink:href="#Gradient_bez_nazwy_55"/><linearGradient id="Gradient_bez_nazwy_55-13" x1="302.77" y1="213.35" x2="857.79" y2="213.35" xlink:href="#Gradient_bez_nazwy_55"/><linearGradient id="Gradient_bez_nazwy_55-14" x1="281.46" y1="169.56" x2="836.47" y2="169.56" xlink:href="#Gradient_bez_nazwy_55"/><linearGradient id="Gradient_bez_nazwy_3" x1="-195.99" y1="119.7" x2="493.03" y2="119.7" gradientUnits="userSpaceOnUse"><stop offset="0.32" stop-color="#fff" stop-opacity="0"/><stop offset="0.32" stop-color="#fff" stop-opacity="0"/><stop offset="0.62" stop-color="#fff" stop-opacity="0.16"/><stop offset="0.86" stop-color="#fff" stop-opacity="0.26"/><stop offset="1" stop-color="#fff" stop-opacity="0.3"/></linearGradient><linearGradient id="Gradient_bez_nazwy_3-2" x1="-217.3" y1="222.67" x2="471.71" y2="222.67" xlink:href="#Gradient_bez_nazwy_3"/><linearGradient id="Gradient_bez_nazwy_3-3" x1="-217.3" y1="144.79" x2="471.71" y2="144.79" xlink:href="#Gradient_bez_nazwy_3"/><linearGradient id="Gradient_bez_nazwy_3-4" x1="-217.3" y1="237.65" x2="471.71" y2="237.65" xlink:href="#Gradient_bez_nazwy_3"/><linearGradient id="Gradient_bez_nazwy_3-5" x1="-217.3" y1="222.26" x2="471.71" y2="222.26" xlink:href="#Gradient_bez_nazwy_3"/><linearGradient id="Gradient_bez_nazwy_3-6" x1="-217.3" y1="206.53" x2="471.71" y2="206.53" xlink:href="#Gradient_bez_nazwy_3"/><linearGradient id="Gradient_bez_nazwy_3-7" x1="-217.3" y1="181.95" x2="471.71" y2="181.95" xlink:href="#Gradient_bez_nazwy_3"/><linearGradient id="Gradient_bez_nazwy_3-8" x1="-217.3" y1="234.96" x2="471.71" y2="234.96" xlink:href="#Gradient_bez_nazwy_3"/><linearGradient id="Gradient_bez_nazwy_3-9" x1="-217.3" y1="95.7" x2="471.71" y2="95.7" xlink:href="#Gradient_bez_nazwy_3"/></defs><title>map</title><g class="cls-1"><g id="Warstwa_1" data-name="Warstwa 1"><polygon class="cls-2" points="337.93 227.9 337.93 227.9 349.53 149.56 337.93 227.9"/><path class="cls-2" d="M391.19,12.24L680.82,90.61,748,70.45,735.7,121.89l-47.21,19.53,3.88,25.7,36.29-17-5.91,24.64a130,130,0,0,0-29.39-1.07L693.1,172l4,26.41c41-1.09,69,9.68,77.19,41h23.9a93.14,93.14,0,0,0-3.45-11.86l83.11-59.48-8.7,71.33h24.62L904,155.16l84,6.42,35.51,77.82h13L927.34,0,680.55,78.29,391.21,0,389.4,12.72Zm384,48.42,145.7-46.22,55.55,121.74L761.07,119.73Zm83.48,91L782.78,206c-10.09-12.73-23.23-20.59-36.32-25.4l8.84-36.84Z" transform="translate(-21.32)"/><polygon class="cls-2" points="355.2 111.32 355.2 111.32 353.97 111.76 350.5 136.11 351.58 135.73 355.2 111.32"/><polygon class="cls-3" points="349.53 149.56 351.58 135.73 350.5 136.11 337.44 227.79 337.93 227.9 349.53 149.56"/><polygon class="cls-3" points="369.87 12.24 368.08 12.72 353.97 111.76 355.2 111.32 369.87 12.24"/><polygon class="cls-3" points="355.2 111.32 369.87 12.24 355.2 111.32 355.2 111.32"/><polygon class="cls-3" points="882.72 155.16 872.44 239.4 1002.26 239.4 966.75 161.58 882.72 155.16"/><polygon class="cls-3" points="714.38 121.89 726.72 70.45 659.5 90.61 667.17 141.42 714.38 121.89"/><polygon class="cls-3" points="899.62 14.44 753.92 60.66 739.75 119.73 955.17 136.18 899.62 14.44"/><path class="cls-3" d="M697.09,198.41l6.19,41h71C766.07,208.09,738.09,197.32,697.09,198.41Z" transform="translate(-21.32)"/><path class="cls-3" d="M693.35,173.66a130,130,0,0,1,29.39,1.07l5.91-24.64-36.29,17L693.1,172Z" transform="translate(-21.32)"/><path class="cls-3" d="M782.78,206l75.94-54.34L755.3,143.8l-8.84,36.84C759.55,185.45,772.69,193.31,782.78,206Z" transform="translate(-21.32)"/><path class="cls-3" d="M794.72,227.54a93.14,93.14,0,0,1,3.45,11.86h71l8.7-71.33Z" transform="translate(-21.32)"/><polygon class="cls-2" points="337.93 227.9 337.93 227.9 351.58 135.73 349.53 149.56 337.93 227.9"/><polygon class="cls-4" points="337.93 227.9 337.93 227.9 351.58 135.73 349.53 149.56 337.93 227.9"/><path class="cls-2" d="M697.09,198.41l-1.68-11.12-2.06-13.64q-3.6-.34-7-0.46c-1.16,0-2.25,0-3.38,0s-2.15,0-3.17,0c-1.49,0-2.91.16-4.34,0.28-0.59,0-1.2.06-1.78,0.12-1.66.17-3.25,0.41-4.81,0.66-0.29,0-.61.08-0.9,0.13-1.71.3-3.35,0.67-5,1.08l-0.37.08c-1.69.44-3.32,0.95-4.89,1.51l-0.07,0a53.89,53.89,0,0,0-8.89,4.08L613.73,134l78.63,33.08h0l-3.88-25.7h0l0,0.22L587.86,99.3,556.31,56.92,680.82,90.61,391.19,12.24l46.67,12.63,22.48,58.28-83.82,28.17-3.62,24.41h0l104.69-35.18,39.78,36.06L359.24,227.9l-1.7,11.5h25.77l72.46-41.84,21.61,41.84H502.7l-27.43-53.1,59.2-34.18,86.25,78.18c-0.36,3-.59,6-0.73,9.1h19.08c1-12.66,4.25-23.14,9.65-30.19C659.31,195.39,685.39,198.81,697.09,198.41ZM480,73.09L464.18,32,522,47.63,566.92,108l-29.56,17.07ZM627,206.28l-72.48-65.7,25.67-14.82,52.43,70.42A59.89,59.89,0,0,0,627,206.28Z" transform="translate(-21.32)"/><path class="cls-5" d="M697.09,198.41l-1.68-11.12-2.06-13.64q-3.6-.34-7-0.46c-1.16,0-2.25,0-3.38,0s-2.15,0-3.17,0c-1.49,0-2.91.16-4.34,0.28-0.59,0-1.2.06-1.78,0.12-1.66.17-3.25,0.41-4.81,0.66-0.29,0-.61.08-0.9,0.13-1.71.3-3.35,0.67-5,1.08l-0.37.08c-1.69.44-3.32,0.95-4.89,1.51l-0.07,0a53.89,53.89,0,0,0-8.89,4.08L613.73,134l78.63,33.08h0l-3.88-25.7h0l0,0.22L587.86,99.3,556.31,56.92,680.82,90.61,391.19,12.24l46.67,12.63,22.48,58.28-83.82,28.17-3.62,24.41h0l104.69-35.18,39.78,36.06L359.24,227.9l-1.7,11.5h25.77l72.46-41.84,21.61,41.84H502.7l-27.43-53.1,59.2-34.18,86.25,78.18c-0.36,3-.59,6-0.73,9.1h19.08c1-12.66,4.25-23.14,9.65-30.19C659.31,195.39,685.39,198.81,697.09,198.41ZM480,73.09L464.18,32,522,47.63,566.92,108l-29.56,17.07ZM627,206.28l-72.48-65.7,25.67-14.82,52.43,70.42A59.89,59.89,0,0,0,627,206.28Z" transform="translate(-21.32)"/><polygon class="cls-2" points="674.09 187.29 675.23 194.82 675.77 198.41 675.77 198.41 675.77 198.41 671.78 172 671.05 167.12 674.09 187.29"/><polygon class="cls-6" points="674.09 187.29 675.23 194.82 675.77 198.41 675.77 198.41 675.77 198.41 671.78 172 671.05 167.12 674.09 187.29"/><polygon class="cls-3" points="351.58 135.73 351.58 135.73 349.53 149.56 351.58 135.73"/><polygon class="cls-7" points="351.58 135.73 351.58 135.73 349.53 149.56 351.58 135.73"/><polygon class="cls-3" points="566.55 99.3 667.2 141.64 667.17 141.42 667.17 141.42 659.5 90.61 535 56.92 566.55 99.3"/><polygon class="cls-8" points="566.55 99.3 667.2 141.64 667.17 141.42 667.17 141.42 659.5 90.61 535 56.92 566.55 99.3"/><polygon class="cls-3" points="496.05 136.61 456.27 100.56 351.58 135.73 337.93 227.9 496.05 136.61"/><polygon class="cls-9" points="496.05 136.61 456.27 100.56 351.58 135.73 337.93 227.9 496.05 136.61"/><polygon class="cls-3" points="500.66 47.63 442.86 31.99 458.71 73.09 516.05 125.06 545.61 108 500.66 47.63"/><polygon class="cls-10" points="500.66 47.63 442.86 31.99 458.71 73.09 516.05 125.06 545.61 108 500.66 47.63"/><polygon class="cls-3" points="439.02 83.15 416.54 24.87 369.87 12.24 355.2 111.32 439.02 83.15"/><polygon class="cls-11" points="439.02 83.15 416.54 24.87 369.87 12.24 355.2 111.32 439.02 83.15"/><polygon class="cls-3" points="361.99 239.4 456.06 239.4 434.46 197.56 361.99 239.4"/><polygon class="cls-12" points="361.99 239.4 456.06 239.4 434.46 197.56 361.99 239.4"/><path class="cls-3" d="M534.47,152.12l-59.2,34.18,27.43,53.1H620c0.14-3.07.37-6.11,0.73-9.1Z" transform="translate(-21.32)"/><path class="cls-13" d="M534.47,152.12l-59.2,34.18,27.43,53.1H620c0.14-3.07.37-6.11,0.73-9.1Z" transform="translate(-21.32)"/><path class="cls-3" d="M554.48,140.58L627,206.28a59.89,59.89,0,0,1,5.62-10.1l-52.43-70.42Z" transform="translate(-21.32)"/><path class="cls-14" d="M554.48,140.58L627,206.28a59.89,59.89,0,0,1,5.62-10.1l-52.43-70.42Z" transform="translate(-21.32)"/><path class="cls-3" d="M613.73,134l35.08,47.11a53.89,53.89,0,0,1,8.89-4.08l0.07,0c1.57-.56,3.2-1.06,4.89-1.51l0.37-.08c1.6-.41,3.25-0.78,5-1.08,0.29-.05.6-0.08,0.9-0.13,1.57-.26,3.16-0.5,4.81-0.66,0.57-.06,1.19-0.07,1.78-0.12,1.43-.11,2.85-0.23,4.34-0.28,1,0,2.11,0,3.17,0s2.21,0,3.38,0q3.39,0.12,7,.46l2.06,13.64-3-20.17Z" transform="translate(-21.32)"/><path class="cls-15" d="M613.73,134l35.08,47.11a53.89,53.89,0,0,1,8.89-4.08l0.07,0c1.57-.56,3.2-1.06,4.89-1.51l0.37-.08c1.6-.41,3.25-0.78,5-1.08,0.29-.05.6-0.08,0.9-0.13,1.57-.26,3.16-0.5,4.81-0.66,0.57-.06,1.19-0.07,1.78-0.12,1.43-.11,2.85-0.23,4.34-0.28,1,0,2.11,0,3.17,0s2.21,0,3.38,0q3.39,0.12,7,.46l2.06,13.64-3-20.17Z" transform="translate(-21.32)"/><path class="cls-3" d="M697.09,198.41h0l-0.54-3.59-1.14-7.53,1.68,11.12c-11.69.4-37.78-3-48.36,10.8-5.4,7-8.65,17.53-9.65,30.19h64.2Z" transform="translate(-21.32)"/><path class="cls-16" d="M697.09,198.41h0l-0.54-3.59-1.14-7.53,1.68,11.12c-11.69.4-37.78-3-48.36,10.8-5.4,7-8.65,17.53-9.65,30.19h64.2Z" transform="translate(-21.32)"/><polygon class="cls-3" points="671.78 172 671.05 167.12 671.05 167.12 671.78 172"/><polygon class="cls-17" points="671.78 172 671.05 167.12 671.05 167.12 671.78 172"/><polygon class="cls-2" points="337.93 227.9 337.93 227.9 337.44 227.79 335.79 239.4 336.22 239.4 337.93 227.9 337.93 227.9"/><path class="cls-2" d="M49,205.95l53.09,20.57,1.16,12.88h22.43l-0.33-3.5,9,3.5h71.87l-12-39.84,71.09-25.91L250.66,239.4h23l2-8.89,28.07,8.89H357.1l1.65-11.61-78.34-18.52,10-44.75,81.44-28.41,3.47-24.35-186,66.92-26-105.57L389.4,12.72,391.21,0,91.65,80,21.32,239.4H34.25Zm133,31.29-46.21-16.4L173,207.28ZM100.18,90l41.2-11,28.9,107.14L111,210.62,57.76,186.09Z" transform="translate(-21.32)"/><path class="cls-18" d="M49,205.95l53.09,20.57,1.16,12.88h22.43l-0.33-3.5,9,3.5h71.87l-12-39.84,71.09-25.91L250.66,239.4h23l2-8.89,28.07,8.89H357.1l1.65-11.61-78.34-18.52,10-44.75,81.44-28.41,3.47-24.35-186,66.92-26-105.57L389.4,12.72,391.21,0,91.65,80,21.32,239.4H34.25Zm133,31.29-46.21-16.4L173,207.28ZM100.18,90l41.2-11,28.9,107.14L111,210.62,57.76,186.09Z" transform="translate(-21.32)"/><polygon class="cls-3" points="27.69 205.95 12.93 239.4 81.94 239.4 80.78 226.52 27.69 205.95"/><polygon class="cls-19" points="27.69 205.95 12.93 239.4 81.94 239.4 80.78 226.52 27.69 205.95"/><polygon class="cls-3" points="148.97 186.09 120.06 78.95 78.87 89.96 36.45 186.09 89.68 210.62 148.97 186.09"/><polygon class="cls-20" points="148.97 186.09 120.06 78.95 78.87 89.96 36.45 186.09 89.68 210.62 148.97 186.09"/><polygon class="cls-3" points="104.37 239.4 113 239.4 104.03 235.9 104.37 239.4"/><polygon class="cls-21" points="104.37 239.4 113 239.4 104.03 235.9 104.37 239.4"/><polygon class="cls-3" points="160.73 237.24 151.71 207.28 114.51 220.84 160.73 237.24"/><polygon class="cls-22" points="160.73 237.24 151.71 207.28 114.51 220.84 160.73 237.24"/><polygon class="cls-3" points="172.89 199.56 184.87 239.4 229.34 239.4 243.98 173.66 172.89 199.56"/><polygon class="cls-23" points="172.89 199.56 184.87 239.4 229.34 239.4 243.98 173.66 172.89 199.56"/><polygon class="cls-3" points="269.06 164.52 259.1 209.26 337.44 227.79 350.5 136.11 269.06 164.52"/><polygon class="cls-24" points="269.06 164.52 259.1 209.26 337.44 227.79 350.5 136.11 269.06 164.52"/><polygon class="cls-3" points="252.39 239.4 282.44 239.4 254.37 230.51 252.39 239.4"/><polygon class="cls-25" points="252.39 239.4 282.44 239.4 254.37 230.51 252.39 239.4"/><polygon class="cls-3" points="141.94 73.11 167.98 178.68 353.97 111.76 368.08 12.72 141.94 73.11"/><polygon class="cls-26" points="141.94 73.11 167.98 178.68 353.97 111.76 368.08 12.72 141.94 73.11"/></g></g></svg>